<svg xmlns="http://www.w3.org/2000/svg" viewBox="0 0 64 64" fill="none">
  <defs>
    <linearGradient id="favicon-primary" x1="0" y1="0" x2="1" y2="1">
      <stop offset="0%" stop-color="#c9952b"/>
      <stop offset="100%" stop-color="#f0d070"/>
    </linearGradient>
  </defs>
  
  <!-- Rounded hex background -->
  <path d="M32 2L56 14C61 16.7 64 22 64 28V36C64 42 61 47.3 56 50L32 62C29.5 63.3 26.5 63.3 24 62L0 50C-5 47.3 -8 42 -8 36V28C-8 22 -5 16.7 0 14L24 2C26.5 0.7 29.5 0.7 32 2Z"
        fill="#0f172a"/>
  
  <!-- Stylized "H" mark -->
  <g stroke="url(#favicon-primary)" stroke-width="3" stroke-linecap="round" stroke-linejoin="round">
    <line x1="16" y1="20" x2="16" y2="44"/>
    <line x1="36" y1="20" x2="36" y2="44"/>
    <line x1="16" y1="30" x2="36" y2="30"/>
  </g>
  
  <!-- Speed arrow -->
  <path d="M36 33C40 33 43 36 45 39" stroke="url(#favicon-primary)" stroke-width="2" stroke-linecap="round" opacity="0.6"/>
  <circle cx="45" cy="39" r="2" fill="url(#favicon-primary)"/>
</svg>
